<svg width="2994" height="2994" viewBox="0 0 2994 2994" fill="none" xmlns="http://www.w3.org/2000/svg">
<rect width="2994" height="2994" fill="white"/>
<path d="M2130.97 605.848C2270.7 739.698 2347 931.33 2347 1167.22C2347 1637.51 2031.68 1943.49 1508.86 1943.49H1177.68V2555.98H646V2090.84L1232.21 1504.6H1453.15C1679.11 1504.6 1812.22 1380.8 1812.22 1173.42C1812.22 1095.25 1793.84 1029.47 1759.19 977.621L2130.97 605.848Z" fill="#0D0D9B"/>
<path fill-rule="evenodd" clip-rule="evenodd" d="M696.663 1834.43C668.687 1834.43 646 1857.15 646 1885.12C646 1913.07 668.687 1935.78 696.663 1935.78C724.638 1935.78 747.326 1913.07 747.326 1885.12C747.326 1857.15 724.638 1834.43 696.663 1834.43Z" fill="#5777FF"/>
<path fill-rule="evenodd" clip-rule="evenodd" d="M851.724 1679.4C823.749 1679.4 801.032 1702.08 801.032 1730.06C801.032 1758.04 823.749 1780.72 851.724 1780.72C879.67 1780.72 902.387 1758.04 902.387 1730.06C902.387 1702.08 879.67 1679.4 851.724 1679.4Z" fill="#5777FF"/>
<path fill-rule="evenodd" clip-rule="evenodd" d="M696.663 1679.4C668.687 1679.4 646 1702.08 646 1730.06C646 1758.04 668.687 1780.72 696.663 1780.72C724.638 1780.72 747.326 1758.04 747.326 1730.06C747.326 1702.08 724.638 1679.4 696.663 1679.4Z" fill="#0D0D9B"/>
<path fill-rule="evenodd" clip-rule="evenodd" d="M696.663 1524.34C668.687 1524.34 646 1547.05 646 1575C646 1602.97 668.687 1625.69 696.663 1625.69C724.638 1625.69 747.326 1602.97 747.326 1575C747.326 1547.05 724.638 1524.34 696.663 1524.34Z" fill="#F8B6F9"/>
<path fill-rule="evenodd" clip-rule="evenodd" d="M851.724 1524.34C823.749 1524.34 801.032 1547.05 801.032 1575C801.032 1602.97 823.749 1625.69 851.724 1625.69C879.67 1625.69 902.387 1602.97 902.387 1575C902.387 1547.05 879.67 1524.34 851.724 1524.34Z" fill="#F8B6F9"/>
<path fill-rule="evenodd" clip-rule="evenodd" d="M1006.76 1524.34C978.812 1524.34 956.095 1547.05 956.095 1575C956.095 1602.97 978.812 1625.69 1006.76 1625.69C1034.73 1625.69 1057.42 1602.97 1057.42 1575C1057.42 1547.05 1034.73 1524.34 1006.76 1524.34Z" fill="#0D0D9B"/>
<path fill-rule="evenodd" clip-rule="evenodd" d="M696.663 1369.3C668.687 1369.3 646 1391.99 646 1419.97C646 1447.91 668.687 1470.63 696.663 1470.63C724.638 1470.63 747.326 1447.91 747.326 1419.97C747.326 1391.99 724.638 1369.3 696.663 1369.3Z" fill="#F8B6F9"/>
<path fill-rule="evenodd" clip-rule="evenodd" d="M851.724 1369.3C823.749 1369.3 801.032 1391.99 801.032 1419.97C801.032 1447.91 823.749 1470.63 851.724 1470.63C879.67 1470.63 902.387 1447.91 902.387 1419.97C902.387 1391.99 879.67 1369.3 851.724 1369.3Z" fill="#F8B6F9"/>
<path fill-rule="evenodd" clip-rule="evenodd" d="M1161.82 1369.3C1133.84 1369.3 1111.15 1391.99 1111.15 1419.97C1111.15 1447.91 1133.84 1470.63 1161.82 1470.63C1189.76 1470.63 1212.48 1447.91 1212.48 1419.97C1212.48 1391.99 1189.76 1369.3 1161.82 1369.3Z" fill="#38CFF2"/>
<path fill-rule="evenodd" clip-rule="evenodd" d="M1006.76 1369.3C978.812 1369.3 956.095 1391.99 956.095 1419.97C956.095 1447.91 978.812 1470.63 1006.76 1470.63C1034.73 1470.63 1057.42 1447.91 1057.42 1419.97C1057.42 1391.99 1034.73 1369.3 1006.76 1369.3Z" fill="#38CFF2"/>
<path fill-rule="evenodd" clip-rule="evenodd" d="M1161.82 1214.24C1133.84 1214.24 1111.15 1236.96 1111.15 1264.91C1111.15 1292.88 1133.84 1315.57 1161.82 1315.57C1189.76 1315.57 1212.48 1292.88 1212.48 1264.91C1212.48 1236.96 1189.76 1214.24 1161.82 1214.24Z" fill="#5777FF"/>
<path fill-rule="evenodd" clip-rule="evenodd" d="M696.663 1214.24C668.687 1214.24 646 1236.96 646 1264.91C646 1292.88 668.687 1315.57 696.663 1315.57C724.638 1315.57 747.326 1292.88 747.326 1264.91C747.326 1236.96 724.638 1214.24 696.663 1214.24Z" fill="#5777FF"/>
<path fill-rule="evenodd" clip-rule="evenodd" d="M1006.76 1214.24C978.812 1214.24 956.095 1236.96 956.095 1264.91C956.095 1292.88 978.812 1315.57 1006.76 1315.57C1034.73 1315.57 1057.42 1292.88 1057.42 1264.91C1057.42 1236.96 1034.73 1214.24 1006.76 1214.24Z" fill="#5777FF"/>
<path fill-rule="evenodd" clip-rule="evenodd" d="M851.724 1214.24C823.749 1214.24 801.032 1236.96 801.032 1264.91C801.032 1292.88 823.749 1315.57 851.724 1315.57C879.67 1315.57 902.387 1292.88 902.387 1264.91C902.387 1236.96 879.67 1214.24 851.724 1214.24Z" fill="#0D0D9B"/>
<path fill-rule="evenodd" clip-rule="evenodd" d="M696.663 1059.18C668.687 1059.18 646 1081.9 646 1109.88C646 1137.82 668.687 1160.54 696.663 1160.54C724.638 1160.54 747.326 1137.82 747.326 1109.88C747.326 1081.9 724.638 1059.18 696.663 1059.18Z" fill="#0D0D9B"/>
<path fill-rule="evenodd" clip-rule="evenodd" d="M1161.82 1059.18C1133.84 1059.18 1111.15 1081.9 1111.15 1109.88C1111.15 1137.82 1133.84 1160.54 1161.82 1160.54C1189.76 1160.54 1212.48 1137.82 1212.48 1109.88C1212.48 1081.9 1189.76 1059.18 1161.82 1059.18Z" fill="#0D0D9B"/>
<path fill-rule="evenodd" clip-rule="evenodd" d="M1006.76 1059.18C978.812 1059.18 956.095 1081.9 956.095 1109.88C956.095 1137.82 978.812 1160.54 1006.76 1160.54C1034.73 1160.54 1057.42 1137.82 1057.42 1109.88C1057.42 1081.9 1034.73 1059.18 1006.76 1059.18Z" fill="#5777FF"/>
<path fill-rule="evenodd" clip-rule="evenodd" d="M851.724 1059.18C823.749 1059.18 801.032 1081.9 801.032 1109.88C801.032 1137.82 823.749 1160.54 851.724 1160.54C879.67 1160.54 902.387 1137.82 902.387 1109.88C902.387 1081.9 879.67 1059.18 851.724 1059.18Z" fill="#38CFF2"/>
<path fill-rule="evenodd" clip-rule="evenodd" d="M696.663 904.152C668.687 904.152 646 926.84 646 954.815C646 982.791 668.687 1005.48 696.663 1005.48C724.638 1005.48 747.326 982.791 747.326 954.815C747.326 926.84 724.638 904.152 696.663 904.152Z" fill="#38CFF2"/>
<path fill-rule="evenodd" clip-rule="evenodd" d="M1006.76 904.152C978.812 904.152 956.095 926.84 956.095 954.815C956.095 982.791 978.812 1005.48 1006.76 1005.48C1034.73 1005.48 1057.42 982.791 1057.42 954.815C1057.42 926.84 1034.73 904.152 1006.76 904.152Z" fill="#F8B6F9"/>
<path fill-rule="evenodd" clip-rule="evenodd" d="M1161.82 904.152C1133.84 904.152 1111.15 926.84 1111.15 954.815C1111.15 982.791 1133.84 1005.48 1161.82 1005.48C1189.76 1005.48 1212.48 982.791 1212.48 954.815C1212.48 926.84 1189.76 904.152 1161.82 904.152Z" fill="#F8B6F9"/>
<path fill-rule="evenodd" clip-rule="evenodd" d="M851.724 904.152C823.749 904.152 801.032 926.84 801.032 954.815C801.032 982.791 823.749 1005.48 851.724 1005.48C879.67 1005.48 902.387 982.791 902.387 954.815C902.387 926.84 879.67 904.152 851.724 904.152Z" fill="#38CFF2"/>
<path fill-rule="evenodd" clip-rule="evenodd" d="M851.724 749.092C823.749 749.092 801.032 771.809 801.032 799.755C801.032 827.73 823.749 850.418 851.724 850.418C879.67 850.418 902.387 827.73 902.387 799.755C902.387 771.809 879.67 749.092 851.724 749.092Z" fill="#0D0D9B"/>
<path fill-rule="evenodd" clip-rule="evenodd" d="M1471.91 749.092C1443.96 749.092 1421.24 771.809 1421.24 799.755C1421.24 827.73 1443.96 850.418 1471.91 850.418C1499.88 850.418 1522.57 827.73 1522.57 799.755C1522.57 771.809 1499.88 749.092 1471.91 749.092Z" fill="#38CFF2"/>
<path fill-rule="evenodd" clip-rule="evenodd" d="M696.663 749.092C668.687 749.092 646 771.809 646 799.755C646 827.73 668.687 850.418 696.663 850.418C724.638 850.418 747.326 827.73 747.326 799.755C747.326 771.809 724.638 749.092 696.663 749.092Z" fill="#38CFF2"/>
<path fill-rule="evenodd" clip-rule="evenodd" d="M1316.85 749.092C1288.9 749.092 1266.18 771.809 1266.18 799.755C1266.18 827.73 1288.9 850.418 1316.85 850.418C1344.82 850.418 1367.54 827.73 1367.54 799.755C1367.54 771.809 1344.82 749.092 1316.85 749.092Z" fill="#0D0D9B"/>
<path fill-rule="evenodd" clip-rule="evenodd" d="M1006.76 749.092C978.812 749.092 956.095 771.809 956.095 799.755C956.095 827.73 978.812 850.418 1006.76 850.418C1034.73 850.418 1057.42 827.73 1057.42 799.755C1057.42 771.809 1034.73 749.092 1006.76 749.092Z" fill="#5777FF"/>
<path fill-rule="evenodd" clip-rule="evenodd" d="M1161.82 749.092C1133.84 749.092 1111.15 771.809 1111.15 799.755C1111.15 827.73 1133.84 850.418 1161.82 850.418C1189.76 850.418 1212.48 827.73 1212.48 799.755C1212.48 771.809 1189.76 749.092 1161.82 749.092Z" fill="#5777FF"/>
<path fill-rule="evenodd" clip-rule="evenodd" d="M1626.97 749.092C1598.99 749.092 1576.3 771.809 1576.3 799.755C1576.3 827.73 1598.99 850.418 1626.97 850.418C1654.94 850.418 1677.63 827.73 1677.63 799.755C1677.63 771.809 1654.94 749.092 1626.97 749.092Z" fill="#38CFF2"/>
<path fill-rule="evenodd" clip-rule="evenodd" d="M1782 749.092C1754.05 749.092 1731.34 771.809 1731.34 799.755C1731.34 827.73 1754.05 850.418 1782 850.418C1809.98 850.418 1832.69 827.73 1832.69 799.755C1832.69 771.809 1809.98 749.092 1782 749.092Z" fill="#38CFF2"/>
<path fill-rule="evenodd" clip-rule="evenodd" d="M1316.85 594.03C1288.9 594.03 1266.18 616.747 1266.18 644.723C1266.18 672.668 1288.9 695.385 1316.85 695.385C1344.82 695.385 1367.54 672.668 1367.54 644.723C1367.54 616.747 1344.82 594.03 1316.85 594.03Z" fill="#F8B6F9"/>
<path fill-rule="evenodd" clip-rule="evenodd" d="M1937.06 594.03C1909.09 594.03 1886.4 616.747 1886.4 644.723C1886.4 672.668 1909.09 695.385 1937.06 695.385C1965.04 695.385 1987.73 672.668 1987.73 644.723C1987.73 616.747 1965.04 594.03 1937.06 594.03Z" fill="#5777FF"/>
<path fill-rule="evenodd" clip-rule="evenodd" d="M1161.82 594.03C1133.84 594.03 1111.15 616.747 1111.15 644.723C1111.15 672.668 1133.84 695.385 1161.82 695.385C1189.76 695.385 1212.48 672.668 1212.48 644.723C1212.48 616.747 1189.76 594.03 1161.82 594.03Z" fill="#F8B6F9"/>
<path fill-rule="evenodd" clip-rule="evenodd" d="M851.724 594.03C823.749 594.03 801.032 616.747 801.032 644.723C801.032 672.668 823.749 695.385 851.724 695.385C879.67 695.385 902.387 672.668 902.387 644.723C902.387 616.747 879.67 594.03 851.724 594.03Z" fill="#5777FF"/>
<path fill-rule="evenodd" clip-rule="evenodd" d="M1782 594.03C1754.05 594.03 1731.34 616.747 1731.34 644.723C1731.34 672.668 1754.05 695.385 1782 695.385C1809.98 695.385 1832.69 672.668 1832.69 644.723C1832.69 616.747 1809.98 594.03 1782 594.03Z" fill="#5777FF"/>
<path fill-rule="evenodd" clip-rule="evenodd" d="M1626.97 594.03C1598.99 594.03 1576.3 616.747 1576.3 644.723C1576.3 672.668 1598.99 695.385 1626.97 695.385C1654.94 695.385 1677.63 672.668 1677.63 644.723C1677.63 616.747 1654.94 594.03 1626.97 594.03Z" fill="#0D0D9B"/>
<path fill-rule="evenodd" clip-rule="evenodd" d="M696.663 594.03C668.687 594.03 646 616.747 646 644.723C646 672.668 668.687 695.385 696.663 695.385C724.638 695.385 747.326 672.668 747.326 644.723C747.326 616.747 724.638 594.03 696.663 594.03Z" fill="#5777FF"/>
<path fill-rule="evenodd" clip-rule="evenodd" d="M1471.91 594.03C1443.96 594.03 1421.24 616.747 1421.24 644.723C1421.24 672.668 1443.96 695.385 1471.91 695.385C1499.88 695.385 1522.57 672.668 1522.57 644.723C1522.57 616.747 1499.88 594.03 1471.91 594.03Z" fill="#38CFF2"/>
<path fill-rule="evenodd" clip-rule="evenodd" d="M1006.76 594.03C978.812 594.03 956.095 616.747 956.095 644.723C956.095 672.668 978.812 695.385 1006.76 695.385C1034.73 695.385 1057.42 672.668 1057.42 644.723C1057.42 616.747 1034.73 594.03 1006.76 594.03Z" fill="#F8B6F9"/>
<path fill-rule="evenodd" clip-rule="evenodd" d="M1471.91 439C1443.96 439 1421.24 461.688 1421.24 489.663C1421.24 517.638 1443.96 540.326 1471.91 540.326C1499.88 540.326 1522.57 517.638 1522.57 489.663C1522.57 461.688 1499.88 439 1471.91 439Z" fill="#38CFF2"/>
<path fill-rule="evenodd" clip-rule="evenodd" d="M1937.06 439C1909.09 439 1886.4 461.688 1886.4 489.663C1886.4 517.638 1909.09 540.326 1937.06 540.326C1965.04 540.326 1987.73 517.638 1987.73 489.663C1987.73 461.688 1965.04 439 1937.06 439Z" fill="#0D0D9B"/>
<path fill-rule="evenodd" clip-rule="evenodd" d="M1006.76 439C978.812 439 956.095 461.688 956.095 489.663C956.095 517.638 978.812 540.326 1006.76 540.326C1034.73 540.326 1057.42 517.638 1057.42 489.663C1057.42 461.688 1034.73 439 1006.76 439Z" fill="#F8B6F9"/>
<path fill-rule="evenodd" clip-rule="evenodd" d="M696.663 439C668.687 439 646 461.688 646 489.663C646 517.638 668.687 540.326 696.663 540.326C724.638 540.326 747.326 517.638 747.326 489.663C747.326 461.688 724.638 439 696.663 439Z" fill="#5777FF"/>
<path fill-rule="evenodd" clip-rule="evenodd" d="M1782 439C1754.05 439 1731.34 461.688 1731.34 489.663C1731.34 517.638 1754.05 540.326 1782 540.326C1809.98 540.326 1832.69 517.638 1832.69 489.663C1832.69 461.688 1809.98 439 1782 439Z" fill="#5777FF"/>
<path fill-rule="evenodd" clip-rule="evenodd" d="M1161.82 439C1133.84 439 1111.15 461.688 1111.15 489.663C1111.15 517.638 1133.84 540.326 1161.82 540.326C1189.76 540.326 1212.48 517.638 1212.48 489.663C1212.48 461.688 1189.76 439 1161.82 439Z" fill="#0D0D9B"/>
<path fill-rule="evenodd" clip-rule="evenodd" d="M1316.85 439C1288.9 439 1266.18 461.688 1266.18 489.663C1266.18 517.638 1288.9 540.326 1316.85 540.326C1344.82 540.326 1367.54 517.638 1367.54 489.663C1367.54 461.688 1344.82 439 1316.85 439Z" fill="#F8B6F9"/>
<path fill-rule="evenodd" clip-rule="evenodd" d="M1626.97 439C1598.99 439 1576.3 461.688 1576.3 489.663C1576.3 517.638 1598.99 540.326 1626.97 540.326C1654.94 540.326 1677.63 517.638 1677.63 489.663C1677.63 461.688 1654.94 439 1626.97 439Z" fill="#5777FF"/>
<path fill-rule="evenodd" clip-rule="evenodd" d="M851.724 439C823.749 439 801.032 461.688 801.032 489.663C801.032 517.638 823.749 540.326 851.724 540.326C879.67 540.326 902.387 517.638 902.387 489.663C902.387 461.688 879.67 439 851.724 439Z" fill="#5777FF"/>
</svg>
